<svg xmlns="http://www.w3.org/2000/svg" viewBox="0 0 64 64" aria-label="AisleFinder logo" role="img">
  <rect x="8" y="14" width="7" height="40" rx="3.5" fill="#1f5fa0"/>
  <rect x="21" y="14" width="7" height="40" rx="3.5" fill="#1f5fa0" opacity="0.55"/>
  <rect x="34" y="14" width="7" height="40" rx="3.5" fill="#1f5fa0"/>
  <rect x="47" y="14" width="7" height="40" rx="3.5" fill="#1f5fa0" opacity="0.55"/>
  <path d="M6 58 C13 46 19 50 24 39 C29 28 35 32 40 21" fill="none" stroke="#ffb52e" stroke-width="2.4" stroke-dasharray="2 5.4" stroke-linecap="round"/>
  <path d="M44 7 c3.7 0 5.9 2.7 5.9 5.6 C49.9 17.4 44 22.3 44 22.3 S38.1 17.4 38.1 12.6 C38.1 9.7 40.3 7 44 7 Z" fill="#ffb52e"/>
  <circle cx="44" cy="12.5" r="2" fill="#ffffff"/>
</svg>
